<svg class="icon" viewBox="0 0 1024 1024" xmlns="http://www.w3.org/2000/svg" width="200" height="200">
    <path d="m114.074 546.304 751.155-371.712-529.05 444.723zm837.683-386.406L556.083 678.4l348.877 58.931 21.965-14.592z"
          fill="#FBC07C"/>
    <path d="M874.906 216.934 397.26 640.461l99.789 212.173 8.652-186.932z" fill="#FC9553"/>
    <path d="M542.72 888.371V703.334l10.906-15.104 115.712 17.255z" fill="#E56234"/>
    <path d="M962.406 96.307c-1.843-1.843-4.044-3.072-6.348-3.84-4.045-1.69-8.704-1.74-12.954.205-7.22 3.38-722.586 339.61-874.957 410.368a27.233 27.233 0 0 0-15.77 26.675 27.095 27.095 0 0 0 19.252 24.269l253.9 78.131 164.404 312.73a16.44 16.44 0 0 0 14.592 8.806c.102 0 .205-.051.307-.051.82.102 1.638.205 2.458.205a16.85 16.85 0 0 0 13.875-7.27l148.787-214.887c5.888-7.373 10.291-13.056 13.517-17.51l217.753 38.092c3.072.973 6.298 1.434 9.472 1.434 6.196 0 12.34-1.792 17.562-5.325a31.693 31.693 0 0 0 14.029-25.088l24.78-611.942c.052-.768-.05-1.536-.102-2.253.461-4.506-1.024-9.267-4.557-12.749zM852.48 169.216 332.698 602.214 88.986 527.258c128.153-59.648 562.483-263.63 763.494-358.042zm-496.947 453.99 481.843-401.408-320.051 404.788-24.627 30.822-2.356 4.71v217.498l-134.81-256.41zm289.843 89.959L521.011 892.723V685.824l128 22.374a804.984 804.984 0 0 1-3.635 4.967zm266.189 8.96v.051c0 .154 0 .46-.41.717-.358.256-.665.153-.819.102l-1.331-.512-229.53-40.14-146.483-26.061 7.629-9.626L934.554 153.6l-22.99 568.525z"
          fill="#333"/>
</svg>
