<svg class="icon" viewBox="0 0 1024 1024" xmlns="http://www.w3.org/2000/svg" width="200" height="200">
    <path d="m487.22 479.437-.103.102c.051-.051.102-.051.102-.102zm-4.404 5.12c.205-.307.46-.615.717-.922-.256.307-.512.615-.717.922zm24.013-14.695h-.051zm-21.965 12.084zm-8.653 23.347zm4.762-17.869c.256-.41.512-.82.717-1.229-.205.41-.461.82-.717 1.229zm49.305-12.902c.256.153.461.307.717.46-.256-.204-.512-.307-.717-.46zm5.53 4.044a4.618 4.618 0 0 1-.512-.46c.154.153.358.307.512.46zm-10.957-6.707c.205.051.359.154.563.205-.153-.051-.358-.102-.563-.205zm18.33 15.872c-.103-.205-.256-.41-.359-.614.103.205.256.41.359.614zm4.045 23.706c.05-.205.05-.461.102-.666 0 .205-.051.461-.102.666zm-1.434-17.971-.307-.922c.051.307.205.614.307.922zm1.485 5.99c-.051-.256-.051-.563-.103-.82.052.308.103.564.103.82zm-67.84-9.011c.205-.512.46-.973.717-1.434-.256.461-.512.922-.717 1.434z"
          fill="#EDC951"/>
    <path d="M530.125 234.189c-156.57 0-283.546 128.205-283.546 286.361s126.925 286.362 283.546 286.362S813.67 678.707 813.67 520.55c-.05-158.156-126.976-286.361-283.545-286.361zM512 541.082c-16.691 0-30.669-11.418-34.662-26.88l-112.64-112.64 43.008-43.008L512.922 463.77l153.395-153.396 43.008 43.008-163.38 163.38A35.876 35.876 0 0 1 512 541.082z"
          fill="#EDC951"/>
    <path d="M476.57 510.106c0-.154-.052-.256-.052-.41 0 .102 0 .256.052.41zm1.587-16.487zm-.973 3.38zm-.666 3.635c.103-.768.205-1.536.359-2.304-.154.768-.256 1.536-.359 2.304z"
          fill="#EDC951"/>
    <path d="M530.637 153.6c-199.475 0-361.165 163.738-361.165 365.722s161.69 365.721 361.165 365.721c199.475 0 361.165-163.737 361.165-365.721S730.06 153.6 530.637 153.6zm0 656.18c-158.413 0-320.256-135.169-320.256-295.63s137.318-310.272 315.085-310.272c158.412 0 292.044 154.983 292.044 315.392S689.05 809.78 530.637 809.78z"
          fill="#FFB47A"/>
    <path d="M512 822.272c-174.797 0-316.98-142.182-316.98-316.98S337.204 188.263 512 188.263s316.98 142.183 316.98 316.98S686.796 822.272 512 822.272zm0-603.29c-157.85 0-286.26 128.41-286.26 286.26S354.15 791.552 512 791.552s286.26-128.41 286.26-286.26S669.85 218.983 512 218.983z"
          fill="#333"/>
    <path d="M301.824 831.386c-.307.972-59.802 101.939-59.802 101.939h44.75l42.802-86.272-27.75-15.667zM721.254 830.003l51.661 112.538 53.3-6.81L750.08 809.78z"
          fill="#FFA750"/>
    <path d="M327.322 168.96s-104.91-65.178-187.75 24.525c-23.04 26.47-55.706 105.318 11.622 165.069 21.555-47.412 88.883-147.456 176.128-189.594zM712.755 173.875s163.635-89.241 213.607 84.327c-2.868 37.53-31.386 91.136-56.884 101.427-17.612-48.487-156.723-185.754-156.723-185.754z"
          fill="#EDC951"/>
    <path d="M512 319.693c-8.5 0-15.36-6.861-15.36-15.36v-52.839c0-8.499 6.86-15.36 15.36-15.36s15.36 6.861 15.36 15.36v52.839c0 8.499-6.86 15.36-15.36 15.36zM512 773.99c-8.5 0-15.36-6.86-15.36-15.36v-52.838c0-8.5 6.86-15.36 15.36-15.36s15.36 6.86 15.36 15.36v52.838c0 8.5-6.86 15.36-15.36 15.36zM765.542 520.448h-52.838c-8.5 0-15.36-6.86-15.36-15.36s6.86-15.36 15.36-15.36h52.838c8.5 0 15.36 6.86 15.36 15.36s-6.86 15.36-15.36 15.36zM311.245 520.448h-52.839c-8.499 0-15.36-6.86-15.36-15.36s6.861-15.36 15.36-15.36h52.839c8.499 0 15.36 6.86 15.36 15.36s-6.861 15.36-15.36 15.36z"
          fill="#333"/>
    <path d="m388.608 389.58 88.832 88.782 22.938-20.173-93.133-91.648z" fill="#E56A77"/>
    <path d="M534.477 478.771c6.041 5.786 9.625 11.162 8.243 21.35-.563 3.994-.666 7.885-1.894 11.47l163.379-163.38-21.248-21.248-153.651 152.218c1.69-.256 3.89-1.639 5.17-.41z"
          fill="#63CCFC"/>
    <path d="M907.162 505.293c0-47.053-8.295-92.211-23.45-134.093a35.607 35.607 0 0 0 1.843-1.126c43.11-31.13 65.843-81.46 60.826-134.554-6.707-71.066-63.232-127.13-134.4-133.274-46.746-4.044-91.495 13.517-122.88 48.077-.359.41-.717.87-1.075 1.331a392.417 392.417 0 0 0-175.975-41.523c-63.693 0-123.853 15.258-177.152 42.087-.512-.666-.973-1.332-1.536-1.895-31.385-34.611-76.134-52.121-122.88-48.077-71.168 6.144-127.693 62.208-134.4 133.274-5.017 53.094 17.715 103.424 60.826 134.554 1.024.716 2.099 1.382 3.225 1.945a393.923 393.923 0 0 0-23.193 133.274c0 122.163 55.705 231.526 143.053 304.025l-76.186 125.236a15.423 15.423 0 0 0-.256 15.513 15.411 15.411 0 0 0 13.414 7.834h92.826c5.99 0 11.469-3.533 13.978-8.96l39.475-86.477a392.632 392.632 0 0 0 168.806 37.99c61.44 0 119.603-14.08 171.52-39.219l40.039 87.706a15.319 15.319 0 0 0 13.977 8.96h92.826c5.53 0 10.65-2.97 13.414-7.834a15.423 15.423 0 0 0-.256-15.513l-77.26-127.079c85.964-72.55 140.85-181.094 140.85-302.182zm-97.895-372.48c55.45 4.761 101.223 50.176 106.496 105.523 3.789 40.09-12.339 78.131-43.315 103.014-28.211-75.212-84.685-138.393-156.416-174.899 24.576-24.422 58.266-36.659 93.235-33.638zM106.598 238.387c5.223-55.398 50.996-100.761 106.496-105.523 34.97-3.072 68.66 9.216 93.236 33.69-71.68 36.505-128.205 99.686-156.416 174.899-31.028-24.935-47.104-62.976-43.316-103.066zm209.255 609.895-35.994 78.899h-55.603l60.16-98.97c1.792 1.229 3.584 2.407 5.376 3.635 1.126.768 2.253 1.485 3.38 2.253 4.044 2.714 8.089 5.325 12.236 7.834 1.382.87 2.765 1.69 4.147 2.509 2.1 1.28 4.199 2.61 6.298 3.84zm426.035-21.71 61.133 100.558h-55.603l-36.66-80.333c1.792-1.075 3.584-2.202 5.376-3.328.564-.359 1.127-.666 1.69-1.024 4.71-2.919 9.42-5.888 14.029-9.011a65.285 65.285 0 0 0 2.355-1.639c2.509-1.69 5.12-3.379 7.68-5.222zm-10.906-30.207c-.665.512-1.382 1.024-2.048 1.536a308.38 308.38 0 0 1-12.544 8.909c-.41.307-.819.563-1.228.87-58.061 39.168-128 62.003-203.162 62.003-62.31 0-121.037-15.77-172.39-43.469a103.51 103.51 0 0 0-3.277-1.792 537.65 537.65 0 0 1-11.776-6.758c-1.024-.614-2.048-1.229-3.021-1.843-3.994-2.458-7.885-4.967-11.776-7.527-.82-.563-1.638-1.126-2.509-1.69-4.096-2.815-8.192-5.682-12.134-8.652-.512-.41-1.075-.768-1.587-1.178-88.576-66.56-145.92-172.441-145.92-291.481 0-200.96 163.481-364.39 364.39-364.39s364.442 163.481 364.442 364.39c0 118.784-57.19 224.46-145.46 291.072z"
          fill="#333"/>
    <path d="M512 188.262c-174.797 0-316.98 142.183-316.98 316.98S337.204 822.22 512 822.22s316.98-142.183 316.98-316.98c0-174.745-142.183-316.979-316.98-316.979zm0 603.29c-157.85 0-286.26-128.41-286.26-286.26S354.15 218.983 512 218.983s286.26 128.41 286.26 286.26S669.85 791.552 512 791.552z"
          fill="#333"/>
    <path d="M720.128 342.528 677.12 299.52c-5.786-5.786-15.974-5.786-21.709 0l-142.54 142.54-94.311-94.36a15.36 15.36 0 0 0-21.709 0l-43.008 42.956c-2.867 2.867-4.505 6.81-4.505 10.854s1.638 7.988 4.505 10.855l109.978 109.977c1.126 3.124 2.509 6.093 4.198 8.91l-130.918 129.74a15.309 15.309 0 0 0-.103 21.709c3.021 3.02 6.964 4.557 10.906 4.557 3.891 0 7.834-1.485 10.803-4.455l132.199-130.97c6.45 2.919 13.568 4.609 21.043 4.609 21.145 0 39.27-12.852 47.104-31.181l161.024-161.024c2.867-2.867 4.505-6.81 4.505-10.855s-1.536-7.987-4.454-10.854zm-312.474 37.734 79.975 79.975c-1.997 1.075-3.891 2.355-5.683 3.635-.41.307-.87.614-1.28.973-1.741 1.382-3.43 2.816-5.018 4.403-.154.154-.307.358-.46.512a49.794 49.794 0 0 0-3.994 4.71c-.308.41-.615.768-.922 1.178a52.97 52.97 0 0 0-3.533 5.683l-.153.307-80.18-80.128 21.248-21.248zM512 525.722c-9.626 0-17.664-6.708-19.866-15.719-.102-.46-.204-.921-.256-1.382-.204-1.127-.358-2.202-.358-3.38 0-1.433.154-2.764.41-4.095a20.48 20.48 0 0 1 24.166-15.924c6.656 1.383 12.083 5.99 14.694 12.084a20.519 20.519 0 0 1 1.588 7.936c0 1.228-.154 2.457-.359 3.635a15.32 15.32 0 0 1-.41 1.638c-2.303 8.755-10.188 15.207-19.609 15.207zm46.029-42.804c-.103-.204-.256-.41-.41-.665a58.888 58.888 0 0 0-3.379-5.786c-.154-.205-.307-.358-.41-.563a50.593 50.593 0 0 0-3.89-4.864c-.308-.358-.615-.717-.974-1.075-1.536-1.639-3.174-3.123-4.915-4.557-.256-.205-.563-.41-.87-.666-1.587-1.228-3.277-2.355-4.967-3.379-.256-.153-.46-.358-.716-.46l128.819-128.82 21.248 21.248-129.536 129.587z"
          fill="#333"/>
</svg>
