<svg class="icon" viewBox="0 0 1024 1024" xmlns="http://www.w3.org/2000/svg" width="200" height="200">
    <path d="m330.189 691.507-24.525 55.45 149.504 2.918-33.843-75.264z" fill="#E56A77"/>
    <path d="m638.976 685.926-24.474 55.45 149.504 2.918-33.843-75.264z" fill="#84DDFD"/>
    <path d="M127.693 394.854a290.611 251.546 90 1 0 503.091 0 290.611 251.546 90 1 0-503.091 0Z" fill="#E56A77"/>
    <path d="M694.067 85.606c-51.66 0-78.08 7.27-124.518 34.663 66.97 52.07 106.547 162.713 106.547 267.98 0 98.56-75.98 186.42-135.936 239.873 36.506 28.364 107.674 46.49 153.958 46.49 131.124 0 237.415-131.84 237.415-294.503S825.19 85.606 694.067 85.606z"
          fill="#84DDFD"/>
    <path d="M946.842 368.026c0-177.51-128.103-321.946-285.492-321.946-56.78 0-111.257 18.637-158.208 53.965-41.984-27.392-90.624-43.11-142.438-43.11-157.44 0-285.491 144.435-285.491 321.945 0 144.947 85.401 267.827 202.445 308.02-7.527 12.492-13.824 26.265-16.948 33.484-5.785 13.312-5.478 27.034.87 36.71 5.326 8.141 14.08 12.596 24.628 12.596h59.904c2.253 39.065 17.254 56.473 30.618 71.936 3.225 3.737 6.297 7.27 9.318 11.264 13.517 17.305 28.058 41.574 20.685 58.88-8.243 19.456-41.83 27.084-54.119 28.416a15.309 15.309 0 0 0-13.67 16.844c.82 7.885 7.475 13.824 15.258 13.824.512 0 1.024 0 1.587-.102 6.349-.666 62.361-7.424 79.206-46.848 10.65-24.986 2.355-55.194-24.576-89.702-3.481-4.608-7.014-8.704-10.445-12.647-11.673-13.517-21.248-24.627-23.142-51.865h59.34c12.238 0 22.734-6.196 28.007-16.538 5.427-10.598 4.147-23.757-3.225-34.509l-17.613-31.641c27.033-9.216 52.377-22.836 75.366-40.141 20.327 13.26 41.933 23.552 64.359 30.771-6.912 11.776-13.159 25.14-17.152 34.15-5.99 13.568-5.684 27.648.87 37.735 5.274 8.14 14.285 12.8 24.627 12.8h59.853c2.15 40.653 17.1 58.726 30.464 74.803 3.226 3.891 6.298 7.526 9.318 11.725 13.824 18.432 28.57 44.237 20.583 62.771-8.653 20.02-41.78 27.853-53.863 29.184a15.314 15.314 0 0 0-13.619 16.896 15.314 15.314 0 0 0 15.258 13.722c.563 0 1.075 0 1.638-.103 2.509-.256 61.082-6.912 78.746-47.411 11.213-25.754 3.123-57.19-24.013-93.338-3.482-4.812-7.014-9.01-10.394-13.107-11.878-14.285-21.606-26.01-23.398-55.142h59.443c12.647 0 23.706-7.322 28.877-19.047 4.915-11.212 3.174-24.166-4.352-33.587l-18.688-34.56c115.507-41.216 199.578-163.277 199.578-307.097zm-840.96 10.854c0-160.614 114.278-291.226 254.77-291.226 50.535 0 97.69 16.999 137.37 46.132a225.856 225.856 0 0 1 7.834 5.99c1.843 1.485 3.686 2.918 5.478 4.454 1.792 1.485 3.533 3.072 5.274 4.608 40.704 36.148 71.68 86.016 87.347 143.514 0 .102.051.154.051.256 2.1 7.731 3.892 15.616 5.428 23.654.307 1.485.614 2.97.87 4.506.46 2.714.87 5.478 1.28 8.192a345.887 345.887 0 0 1 2.048 16.128c.358 3.635.666 7.22.922 10.906.153 1.945.307 3.89.41 5.888.306 5.683.46 11.366.46 17.1 0 5.53-.154 11.11-.46 16.59-.052 1.28-.154 2.508-.257 3.788a286.871 286.871 0 0 1-1.075 13.21c-.102 1.075-.256 2.15-.358 3.225-.564 4.813-1.178 9.626-1.895 14.387-.102.512-.153 1.024-.256 1.536-7.321 45.108-23.91 87.604-48.128 123.956-.153.256-.307.46-.46.716a273.17 273.17 0 0 1-8.193 11.52c-.716.973-1.433 1.895-2.15 2.868a247.779 247.779 0 0 1-7.322 9.113c-.87 1.075-1.792 2.15-2.662 3.226a319.24 319.24 0 0 1-8.755 9.728c-.461.512-.922 1.075-1.434 1.536-3.379 3.533-6.86 6.912-10.445 10.24-1.177 1.126-2.457 2.201-3.635 3.277-2.509 2.252-5.017 4.454-7.629 6.604-27.699 23.092-59.596 39.885-94.156 48.692a221.467 221.467 0 0 1-12.852 2.867c-.153.051-.307.051-.46.102a223.77 223.77 0 0 1-96.103-2.509C192.102 635.187 105.882 518.35 105.882 378.88zm306.892 316.518 21.71 38.964c.306.512.614 1.075.972 1.536 1.075 1.433 1.28 2.56 1.331 3.072-.153 0-.358.05-.614.05H287.232c.051-1.433.41-3.686 1.587-6.348 6.707-15.36 13.927-28.928 19.815-37.222l2.508.46c3.072.615 6.144 1.178 9.216 1.69 1.485.256 2.97.41 4.455.666 2.918.41 5.888.819 8.857 1.126 1.844.205 3.636.307 5.479.46 2.662.206 5.325.462 8.038.615 2.509.154 5.018.154 7.527.205 1.996.051 3.993.154 5.99.154 2.304 0 4.557-.154 6.86-.205 2.151-.051 4.353-.051 6.503-.205 3.072-.154 6.093-.46 9.114-.717 1.433-.153 2.867-.205 4.3-.358 3.329-.359 6.657-.82 9.985-1.28l3.225-.461c3.482-.563 6.963-1.229 10.394-1.894.512-.103 1.126-.154 1.69-.308zm253.543-5.427c16.64 0 33.024-1.894 50.79-5.888l22.477 41.575a16.403 16.403 0 0 0 2.202 3.123c.563.614.614 1.28.256 2.15-.308.666-.564.666-.717.666l-149.043-.051c-.052-1.588.256-4.199 1.638-7.322 7.014-15.77 14.438-29.9 20.122-38.4 12.032 2.304 24.115 3.38 35.123 3.789 4.045.205 8.09.307 12.134.307h.768c1.434.051 2.867.051 4.25.051zm-4.147-30.72h-1.844c-40.857-.205-80.896-11.52-116.89-33.075 2.97-2.765 5.786-5.683 8.654-8.602l.563-.563c2.765-2.816 5.427-5.734 8.09-8.704l2.61-2.918a334.443 334.443 0 0 0 6.657-7.834c1.28-1.536 2.56-3.123 3.788-4.71 1.792-2.253 3.533-4.557 5.274-6.861 1.74-2.304 3.38-4.66 5.069-7.014a321.17 321.17 0 0 0 3.635-5.223c2.509-3.686 4.915-7.475 7.27-11.264.308-.512.666-1.075 1.024-1.587 23.04-37.786 39.066-81.357 46.08-128.307.052-.256.052-.461.103-.717a323.296 323.296 0 0 0 1.945-15.77c.052-.665.154-1.33.205-1.996.461-4.864.82-9.83 1.075-14.746.052-.973.154-1.946.205-2.867.256-5.786.41-11.571.41-17.46 0-6.041-.154-12.031-.461-17.97-.102-2.202-.307-4.353-.46-6.503-.257-3.686-.513-7.373-.871-11.06-.256-2.764-.615-5.529-.922-8.294a442.31 442.31 0 0 0-1.126-8.652c-.461-3.226-.973-6.503-1.536-9.677-.359-2.048-.768-4.147-1.127-6.195-.716-3.892-1.536-7.732-2.355-11.572-.153-.563-.256-1.126-.41-1.69-16.383-71.065-53.913-133.938-107.622-178.175 39.783-27.7 85.095-42.24 132.096-42.24 140.493 0 254.771 130.662 254.771 291.225.052 160.052-113.817 290.51-253.9 291.021z"
          fill="#333"/>
    <path d="M524.749 527.923c-2.97 0-5.99-.87-8.653-2.662a15.375 15.375 0 0 1-4.045-21.35c53.863-79.002 24.423-181.146 24.115-182.17-2.406-8.141 2.202-16.691 10.343-19.098 8.14-2.406 16.64 2.202 19.097 10.291 1.434 4.71 34.048 116.992-28.16 208.282-2.918 4.352-7.782 6.707-12.697 6.707zm303.309-10.24c-2.97 0-5.99-.87-8.653-2.662a15.375 15.375 0 0 1-4.045-21.35c53.862-79.002 24.422-181.146 24.115-182.17-2.406-8.141 2.202-16.691 10.343-19.098 8.14-2.406 16.64 2.202 19.097 10.291 1.434 4.71 34.048 116.992-28.16 208.282a15.339 15.339 0 0 1-12.697 6.707z"
          fill="#333"/>
</svg>
