<svg class="icon" viewBox="0 0 1024 1024" xmlns="http://www.w3.org/2000/svg" width="200" height="200">
    <path d="M764.16 570.522H303.77c-16.948 0-30.72-13.773-30.72-30.72v-125.85c0-28.262 22.937-51.2 51.2-51.2H743.73c28.263 0 51.2 22.938 51.2 51.2V539.75c-.051 16.999-13.773 30.772-30.771 30.772z"
          fill="#EF92C1"/>
    <path d="M881.562 873.677h-693.3c-16.947 0-30.72-13.773-30.72-30.72V700.262c0-28.262 22.938-51.2 51.2-51.2h652.34c28.262 0 51.2 22.938 51.2 51.2v142.695c0 16.947-13.773 30.72-30.72 30.72z"
          fill="#BC9BE0"/>
    <path d="M941.312 955.034H84.224c-8.5 0-15.36-6.861-15.36-15.36s6.86-15.36 15.36-15.36h857.088c8.5 0 15.36 6.86 15.36 15.36s-6.86 15.36-15.36 15.36z"
          fill="#333"/>
    <path d="M341.504 180.173h29.491v149.145h-29.491z" fill="#FFB47A"/>
    <path d="M504.474 181.146h29.49V330.29h-29.49z" fill="#53ECF4"/>
    <path d="M676.966 181.146h29.492V330.29h-29.492z" fill="#EDC951"/>
    <path d="M261.376 585.882h502.835c25.395 0 46.08-20.685 46.08-46.08V380.518c0-36.71-29.85-66.56-66.56-66.56H720.59V180.173c0-8.5-6.861-15.36-15.36-15.36h-50.176c-8.5 0-15.36 6.86-15.36 15.36v133.785h-90.368V180.173c0-8.5-6.861-15.36-15.36-15.36h-50.74c-8.499 0-15.36 6.86-15.36 15.36v133.785h-81.51V180.173c0-8.5-6.86-15.36-15.36-15.36h-50.79c-8.5 0-15.36 6.86-15.36 15.36v133.785h-22.989c-36.71 0-66.56 29.85-66.56 66.56v159.284c0 25.395 20.634 46.08 46.08 46.08zm502.784-30.72H261.376c-8.448 0-15.36-6.912-15.36-15.36V451.02c2.509 2.304 5.12 5.222 8.243 8.909 9.37 10.905 22.221 25.804 46.9 25.804s37.529-14.95 46.899-25.804c8.806-10.24 13.465-15.156 23.603-15.156 10.137 0 14.797 4.916 23.603 15.156 9.37 10.905 22.22 25.804 46.9 25.804s37.529-14.95 46.898-25.804c8.807-10.24 13.466-15.156 23.604-15.156 10.137 0 14.848 4.916 23.654 15.156 9.37 10.905 22.22 25.804 46.9 25.804s37.529-14.95 46.898-25.804c8.807-10.24 13.466-15.156 23.604-15.156 10.137 0 14.848 4.916 23.654 15.156 9.37 10.905 22.22 25.804 46.9 25.804s37.529-14.899 46.898-25.804c3.124-3.636 5.786-6.605 8.295-8.91v88.782c.051 8.448-6.81 15.36-15.309 15.36zm-93.747-359.63h19.456v118.426h-19.456V195.533zm-171.827 0h20.019v118.426h-20.02V195.533zm-163.021 0h20.07v118.426h-20.07V195.533zm-53.709 149.146h461.875c19.763 0 35.84 16.077 35.84 35.84v35.738c-15.104 4.557-24.371 15.258-31.539 23.603-8.806 10.24-13.517 15.155-23.654 15.155s-14.848-4.915-23.655-15.155c-9.37-10.905-22.22-25.805-46.95-25.805-24.679 0-37.53 14.95-46.9 25.805-8.806 10.24-13.465 15.155-23.603 15.155-10.137 0-14.848-4.915-23.654-15.155-9.37-10.905-22.22-25.805-46.9-25.805s-37.529 14.95-46.898 25.805c-8.807 10.24-13.466 15.155-23.604 15.155-10.137 0-14.796-4.915-23.603-15.155-9.37-10.905-22.22-25.805-46.899-25.805s-37.53 14.95-46.9 25.805c-8.806 10.24-13.465 15.155-23.602 15.155s-14.797-4.915-23.604-15.155c-7.219-8.345-16.486-19.097-31.539-23.603v-35.738c-.051-19.763 16.026-35.84 35.789-35.84zm579.226 256.768H164.454c-36.71 0-66.56 29.85-66.56 66.56v174.95c0 25.396 20.685 46.08 46.08 46.08h737.588c25.395 0 46.08-20.684 46.08-46.08v-174.95c0-36.71-29.85-66.56-66.56-66.56zm-696.628 30.72h696.628c19.763 0 35.84 16.077 35.84 35.84v3.124c-20.941 3.532-33.69 13.977-44.34 22.732-11.57 9.472-20.736 16.999-40.192 16.999s-28.62-7.475-40.192-16.999c-13.004-10.7-29.235-23.961-59.699-23.961s-46.643 13.26-59.699 23.961c-11.571 9.472-20.736 16.999-40.192 16.999s-28.62-7.475-40.192-16.999c-13.005-10.65-29.235-23.961-59.7-23.961s-46.642 13.26-59.698 23.961c-11.572 9.472-20.736 16.999-40.192 16.999s-28.621-7.475-40.192-16.999c-13.005-10.7-29.236-23.961-59.7-23.961s-46.643 13.312-59.699 23.961c-11.571 9.472-20.736 16.999-40.192 16.999s-28.62-7.475-40.192-16.999c-10.65-8.704-23.398-19.2-44.288-22.732v-3.124c.051-19.763 16.128-35.84 35.891-35.84zm717.108 226.15H143.974c-8.448 0-15.36-6.911-15.36-15.36V702.619c9.882 2.816 16.845 8.396 24.832 14.95 13.005 10.65 29.236 23.962 59.7 23.962s46.643-13.261 59.648-23.962c11.57-9.472 20.736-16.998 40.192-16.998s28.62 7.475 40.192 16.998c13.004 10.7 29.235 23.962 59.699 23.962s46.643-13.261 59.699-23.962c11.571-9.472 20.736-16.998 40.192-16.998s28.62 7.475 40.192 16.998c13.005 10.7 29.235 23.962 59.7 23.962s46.694-13.261 59.698-23.962c11.572-9.472 20.736-16.998 40.192-16.998 19.508 0 28.621 7.475 40.192 16.998 13.005 10.65 29.236 23.962 59.7 23.962s46.694-13.261 59.699-23.962c7.987-6.554 14.95-12.134 24.832-14.95v140.339c-.051 8.448-6.912 15.36-15.411 15.36zM348.314 151.143c-20.992 0-38.093-17.459-38.093-38.912 0-20.736 11.366-38.707 37.939-60.006 3.482-2.765 7.936-3.891 12.34-3.123a15.298 15.298 0 0 1 10.444 7.219c10.598 17.715 15.462 41.42 15.462 55.962-.05 21.401-17.1 38.86-38.092 38.86zm3.737-61.03c-11.11 11.98-11.11 18.534-11.11 22.118 0 4.506 3.328 8.192 7.373 8.192s7.372-3.686 7.372-8.192c-.05-5.888-1.33-14.028-3.635-22.118zm160.717 61.03c-20.992 0-38.093-17.459-38.093-38.912 0-20.736 11.367-38.707 37.94-60.006 3.481-2.765 7.935-3.891 12.339-3.123a15.298 15.298 0 0 1 10.444 7.219c10.599 17.715 15.463 41.42 15.463 55.962 0 21.401-17.101 38.86-38.093 38.86zm3.738-61.03c-11.11 11.98-11.11 18.534-11.11 22.118 0 4.506 3.276 8.192 7.372 8.192s7.373-3.686 7.373-8.192c0-5.888-1.28-14.028-3.635-22.118zM680.14 151.142c-20.991 0-38.092-17.459-38.092-38.912 0-20.736 11.366-38.707 37.94-60.006 3.48-2.765 7.935-3.891 12.338-3.123a15.298 15.298 0 0 1 10.445 7.219c10.599 17.715 15.463 41.42 15.463 55.962-.052 21.401-17.101 38.86-38.093 38.86zm3.738-61.03c-11.11 11.98-11.11 18.534-11.11 22.118 0 4.506 3.328 8.192 7.373 8.192s7.373-3.686 7.373-8.192c-.052-5.888-1.28-14.028-3.636-22.118z"
          fill="#333"/>
</svg>
