<?xml version="1.0" standalone="no"?><!DOCTYPE svg PUBLIC "-//W3C//DTD SVG 1.1//EN" "http://www.w3.org/Graphics/SVG/1.1/DTD/svg11.dtd"><svg t="1675849483499" class="icon" viewBox="0 0 1024 1024" version="1.1" xmlns="http://www.w3.org/2000/svg" p-id="3695" xmlns:xlink="http://www.w3.org/1999/xlink" width="200" height="200"><path d="M712.070828 219.926711h159.927063L672.071062 19.999883v159.927063c0 21.999871 17.999895 39.999766 39.999766 39.999765z" fill="#CDD3E0" p-id="3696"></path><path d="M871.997891 219.926711h-159.927063c-21.999871 0-39.999766-17.999895-39.999766-39.999765V19.999883H192.001875c-21.999871 0-39.999766 17.999895-39.999766 39.999765v372.003821h719.995782V219.926711z" fill="#FBF7F6" p-id="3697"></path><path d="M871.997891 432.003469h-719.995782c-21.999871 0-39.999766 17.999895-39.999765 39.997765v240.000594c0 21.999871 17.999895 39.997766 39.999765 39.997766h719.995782c21.999871 0 39.999766-17.999895 39.999765-39.997766V472.001234c0-21.999871-17.999895-39.997766-39.999765-39.997765z" fill="#FFC234" p-id="3698"></path><path d="M871.997891 751.999594h-719.995782v211.998758c0 21.999871 17.999895 39.999766 39.999766 39.999765h639.99625c21.997871 0 39.999766-17.999895 39.999766-39.999765v-211.998758z" fill="#FBF7F6" p-id="3699"></path><path d="M504.450044 647.774204c-7.809954-7.807954-20.47388-7.807954-28.285834 0-7.809954 7.809954-7.809954 20.47388 0 28.285835 10.611938 10.611938 24.549856 15.917907 38.489774 15.917906 13.939918 0 27.877837-5.305969 38.489775-15.917906 10.27994-10.28194 15.941907-23.94986 15.941907-38.487775 0-14.541915-5.661967-28.209835-15.941907-38.489774l-38.609774-38.609774a14.331916 14.331916 0 0 1-4.225975-10.20394c0-3.855977 1.501991-7.479956 4.225975-10.20594 5.627967-5.625967 14.783913-5.625967 20.411881 0 7.807954 7.811954 20.47388 7.809954 28.283834-0.002 7.809954-7.809954 7.809954-20.47388-0.002-28.283835-21.221876-21.219876-55.753673-21.219876-76.977549 0-10.27994 10.28194-15.941907 23.95186-15.941907 38.489775s5.661967 28.207835 15.941907 38.487774l38.607774 38.609774c5.627967 5.625967 5.627967 14.781913 0 20.40788-5.623967 5.629967-14.781913 5.629967-20.407881 0.002zM386.148737 689.009963c21.729873 0 42.049754-11.723931 53.02969-30.601821 5.553967-9.545944 2.317986-21.789872-7.229958-27.34384-9.549944-5.557967-21.791872-2.319986-27.34384 7.229958-3.845977 6.609961-10.917936 10.713937-18.455892 10.713937-11.753931 0-21.317875-9.561944-21.317875-21.317875v-74.371564c0-11.755931 9.561944-21.317875 21.317875-21.317875 7.539956 0 14.609914 4.107976 18.457892 10.715937 5.553967 9.547944 17.795896 12.787925 27.34384 7.229958 9.545944-5.553967 12.783925-17.795896 7.229958-27.34384-10.981936-18.877889-31.301817-30.603821-53.03169-30.603821-33.809802 0-61.317641 27.507839-61.31764 61.317641v74.371564c0 33.813802 27.505839 61.321641 61.31764 61.321641zM634.533282 647.774204c-7.811954-7.807954-20.47188-7.807954-28.285834 0-7.809954 7.809954-7.809954 20.47388 0 28.285835 10.611938 10.611938 24.549856 15.917907 38.489774 15.917906 13.939918 0 27.879837-5.305969 38.489775-15.917906 10.27994-10.28194 15.941907-23.94986 15.941906-38.487775 0-14.541915-5.661967-28.209835-15.941906-38.489774l-38.611774-38.609774a14.343916 14.343916 0 0 1-4.225975-10.20394c0-3.855977 1.501991-7.477956 4.225975-10.20594 5.627967-5.627967 14.785913-5.621967 20.41388 0 7.807954 7.811954 20.47388 7.809954 28.283835-0.002 7.809954-7.809954 7.809954-20.47388-0.002-28.283835-21.221876-21.221876-55.755673-21.217876-76.977549 0-10.28194 10.28194-15.943907 23.95186-15.943907 38.489775s5.661967 28.207835 15.943907 38.487774l38.609773 38.609774c5.627967 5.625967 5.627967 14.781913 0 20.40788-5.623967 5.629967-14.783913 5.629967-20.40988 0.002z" p-id="3700"></path><path d="M891.997773 415.443566v-195.516855c0-5.303969-2.107988-10.389939-5.857965-14.141917L686.214979 5.857966A20.005883 20.005883 0 0 0 672.073062 0H372.00082c-11.045935 0-19.999883 8.953948-19.999883 19.999883 0 11.043935 8.953948 19.999883 19.999883 19.999883h280.070359v139.92918c0 33.083806 26.915842 59.997648 59.999649 59.997648h139.92718v172.076992h-679.996016V59.999648c0-11.027935 8.971947-19.999883 19.999883-19.999882 11.045935 0 19.999883-8.955948 19.999883-19.999883 0-11.045935-8.953948-19.999883-19.999883-19.999883-33.083806 0-59.999648 26.915842-59.999648 59.999648v355.443918c-23.277864 8.255952-39.999766 30.483821-39.999766 56.557668v240.000594c0 26.073847 16.721902 48.303717 39.999766 56.559669v195.436855c0 33.083806 26.915842 59.999648 59.999648 59.999648h639.99625c33.083806 0 59.999648-26.915842 59.999648-59.999648v-195.436855C915.275637 760.305545 931.995539 738.073675 931.995539 712.001828V472.001234c0-26.073847-16.719902-48.301717-39.997766-56.557668zM692.072945 179.928946V68.2856l131.641229 131.641229h-111.641346c-11.027935 0-19.999883-8.969947-19.999883-19.997883zM132.002227 472.001234c0-11.027935 8.971947-19.997883 19.997882-19.997882h719.997782c11.027935 0 19.997883 8.969947 19.997882 19.997882v240.000594c0 11.027935-8.969947 19.999883-19.997882 19.999883h-719.995782c-11.027935 0-19.997883-8.971947-19.997882-19.999883V472.001234z m699.995898 511.997h-639.99625c-11.027935 0-19.999883-8.971947-19.999883-19.999882v-191.996875h679.996016v191.996875c0 11.027935-8.971947 19.999883-19.999883 19.999882z" p-id="3701"></path><path d="M791.996359 903.996703h-109.991355c-11.043935 0-19.999883 8.955948-19.999883 19.999883 0 11.045935 8.955948 19.999883 19.999883 19.999883H791.996359c11.043935 0 19.999883-8.953948 19.999883-19.999883s-8.953948-19.999883-19.999883-19.999883zM592.013531 903.996703H591.997531c-11.043935 0-19.991883 8.955948-19.991883 19.999883 0 11.045935 8.963947 19.999883 20.007883 19.999883 11.045935 0 19.999883-8.953948 19.999883-19.999883s-8.953948-19.999883-19.999883-19.999883zM282.009348 39.999766c11.045935 0 19.999883-8.955948 19.999882-19.999883 0-11.045935-8.953948-19.999883-19.999882-19.999883h-0.016c-11.045935 0-19.991883 8.953948-19.991883 19.999883 0 11.043935 8.961947 19.999883 20.007883 19.999883z" p-id="3702"></path></svg>