<svg class="icon" viewBox="0 0 1024 1024" xmlns="http://www.w3.org/2000/svg" width="200" height="200">
    <path d="M173.773 544.46c-15.975 0-28.877 12.391-28.877 27.649v89.753c0 106.394 83.712 194.1 191.488 206.03 2.406.255 4.3 2.2 4.3 4.556v24.73c0 16.23 13.774 29.44 30.72 29.44h334.388c16.998 0 30.72-13.159 30.72-29.44v-24.73c0-2.355 1.843-4.25 4.3-4.557 107.828-11.93 191.489-99.635 191.489-206.029V572.11c0-15.258-12.954-27.648-28.877-27.648H173.773z"
          fill="#BC9BE0"/>
    <path d="m154.368 203.418-43.418.614c-8.806.102-15.923 8.602-15.923 19.046s7.066 18.944 15.923 19.047l43.418.614v-39.321zm768.051-11.06-381.081 5.479v50.483l381.081 5.478c8.96.154 16.282-8.448 16.282-19.046v-23.296c0-10.65-7.322-19.2-16.282-19.098zM154.368 322.15l-43.418.615c-8.806.102-15.923 8.601-15.923 19.046s7.066 18.944 15.923 19.047l43.418.614V322.15zm768.051-11.059-381.081 5.479v50.483l381.081 5.478c8.96.154 16.282-8.448 16.282-19.046v-23.296c0-10.65-7.322-19.2-16.282-19.098z"
          fill="#FFA750"/>
    <path d="M154.368 258.15h-.205l-43.417-.614c-17.408-.256-31.028-15.36-31.028-34.406s13.62-34.15 31.028-34.407l43.417-.614c4.147.051 8.09 1.536 11.008 4.403 2.919 2.867 4.557 6.81 4.557 10.957v39.373c0 4.096-1.638 8.038-4.557 10.956-2.918 2.765-6.758 4.352-10.803 4.352zm-42.752-31.334 27.392.41v-8.192l-27.392.41c-.46.409-1.229 1.689-1.229 3.686s.82 3.225 1.229 3.686zm811.008 42.342h-.41l-381.081-5.478a15.36 15.36 0 0 1-15.155-15.36v-50.483a15.36 15.36 0 0 1 15.155-15.36l381.081-5.479c7.885-.05 15.616 3.021 21.504 8.807 6.605 6.502 10.394 15.82 10.394 25.6V234.7c0 9.779-3.789 19.097-10.394 25.6-5.836 5.785-13.312 8.857-21.094 8.857zm-365.978-35.942 365.466 5.274c.46-.461 1.178-1.69 1.178-3.687v-23.347c0-1.997-.768-3.226-1.178-3.686l-365.466 5.273v20.173zM154.368 376.883h-.205l-43.417-.614c-17.101-.256-31.028-15.667-31.028-34.407 0-18.739 13.927-34.15 31.028-34.406l43.417-.614a15.393 15.393 0 0 1 11.008 4.403c2.919 2.867 4.557 6.81 4.557 10.957v39.372c0 4.096-1.638 8.039-4.557 10.957-2.918 2.765-6.758 4.352-10.803 4.352zm-42.752-31.334 27.392.41v-8.193l-27.392.41c-.41.46-1.229 1.69-1.229 3.686 0 1.946.82 3.226 1.229 3.687zm811.008 42.342h-.41l-381.081-5.478a15.36 15.36 0 0 1-15.155-15.36V316.57a15.36 15.36 0 0 1 15.155-15.36l381.081-5.479c7.885-.102 15.616 3.021 21.504 8.807 6.605 6.502 10.394 15.82 10.394 25.6v23.296c0 9.779-3.789 19.097-10.394 25.6-5.836 5.734-13.312 8.857-21.094 8.857zM556.646 351.95l365.466 5.273c.46-.46 1.178-1.69 1.178-3.686V330.24c0-1.997-.768-3.226-1.178-3.686l-365.466 5.273v20.122zm365.978-25.498zm-.205-15.36z"
          fill="#333"/>
    <path d="M530.842 94.976v45.773s-38.35 9.165-38.35 48.384V502.22H444.57V177.357s-2.612-82.381 86.272-82.381zm-123.188 0v45.773s-38.348 9.165-38.348 48.384V502.22h-47.924V177.357s-2.61-82.381 86.272-82.381zm-122.265 0v45.773s-38.349 9.165-38.349 48.384V502.22h-47.923V177.357s-2.663-82.381 86.272-82.381z"
          fill="#FEEE7D"/>
    <path d="M901.632 486.86H507.904V189.134c0-25.856 23.962-32.768 26.573-33.434 6.912-1.638 11.776-7.833 11.776-14.95V94.976c0-8.5-6.861-15.36-15.36-15.36-31.693 0-56.883 9.37-74.803 27.904-27.802 28.723-26.88 68.608-26.83 69.786V486.81h-44.543V189.133c0-25.856 23.961-32.768 26.573-33.434 6.912-1.638 11.776-7.833 11.776-14.95V94.976c0-8.5-6.861-15.36-15.36-15.36-31.693 0-56.884 9.37-74.804 27.904-27.801 28.723-26.88 68.608-26.828 69.786V486.81H262.45V189.133c0-25.856 23.962-32.768 26.573-33.434 6.912-1.638 11.776-7.833 11.776-14.95V94.976c0-8.5-6.86-15.36-15.36-15.36-31.693 0-56.883 9.37-74.803 27.904-27.802 28.672-26.88 68.608-26.829 69.786V486.81h-58.06c-25.396 0-46.08 20.684-46.08 46.08v99.686c0 121.754 88.831 224.614 208.178 242.893v18.483c0 26.47 21.556 48.026 48.026 48.026h355.584c26.47 0 48.026-21.556 48.026-48.026v-18.483C858.778 857.19 947.66 754.329 947.66 632.576V532.89c.051-25.396-20.634-46.03-46.029-46.03zM459.93 176.948c0-.307-.41-29.03 18.33-48.179 9.113-9.318 21.606-15.155 37.222-17.357v18.637c-17.306 8.14-38.35 26.522-38.35 59.085V486.86H459.93V176.947zm-123.188 0c0-.307-.41-29.03 18.33-48.179 9.114-9.318 21.606-15.155 37.222-17.357v18.637c-17.305 8.14-38.348 26.522-38.348 59.085V486.86h-17.204V176.947zm-122.316-.102c0-.307-.359-28.775 18.176-47.923 9.164-9.421 21.657-15.31 37.376-17.562v18.637c-17.306 8.14-38.35 26.521-38.35 59.085V486.81h-17.202V176.845zm702.566 455.731c0 109.21-81.715 201.011-190.003 213.555a20.49 20.49 0 0 0-18.176 20.327V893.9c0 9.574-7.783 17.305-17.306 17.305H335.923c-9.574 0-17.305-7.782-17.305-17.305v-27.443c0-10.394-7.834-19.15-18.125-20.327-108.34-12.544-190.055-104.345-190.055-213.555V532.89c0-8.448 6.912-15.36 15.36-15.36h775.783c8.448 0 15.36 6.912 15.36 15.36v99.686z"
          fill="#333"/>
</svg>
