<svg class="icon" viewBox="0 0 1024 1024" xmlns="http://www.w3.org/2000/svg" width="200" height="200">
    <path d="M979.456 658.74H821.709c-43.52 0-92.058-2.049-142.643-22.273-85.863-35.123-109.568-118.733-115.2-177.254H224.205c-13.927 0-37.171-6.912-44.851-18.33l-61.03-97.997c-4.762-7.628-16.846-7.065-19.918 1.332-.768 2.048-.921 4.403-.256 6.86l43.316 180.89a42.266 42.266 0 0 0 26.572 28.928c41.882 15.206 90.983 33.485 111.924 41.523 27.34 10.445 33.894 36.352 40.96 61.235C384.666 805.018 575.898 800 575.898 800h234.7c53.607 0 85.35-11.264 113.306-30.874 45.414-34.201 58.317-73.881 55.552-110.387z"
          fill="#FF927C"/>
    <path d="M319.795 142.234a15.36 15.36 0 0 1-15.257-13.773 15.309 15.309 0 0 1 13.67-16.845c58.624-6.144 126.26-9.37 195.584-9.37 59.546 0 118.733 2.407 171.213 7.015 8.448.717 14.694 8.192 13.977 16.64a15.35 15.35 0 0 1-16.64 13.977c-51.558-4.505-109.824-6.912-168.499-6.912-68.3 0-134.81 3.175-192.41 9.165-.563.051-1.126.103-1.638.103zM445.85 254.208h-.512c-83.61-2.611-160.103-10.138-215.348-21.146-67.635-13.465-97.843-30.208-97.843-54.323 0-24.832 32.154-41.933 104.243-55.552 8.346-1.587 16.384 3.891 17.92 12.237 1.588 8.346-3.89 16.384-12.236 17.92-56.884 10.752-73.626 21.606-78.08 25.549 15.104 15.565 110.643 39.219 282.316 44.595 8.5.256 15.156 7.373 14.848 15.82a15.268 15.268 0 0 1-15.308 14.9zm133.017.102a15.346 15.346 0 0 1-15.36-14.899 15.345 15.345 0 0 1 14.9-15.82c173.414-5.172 269.977-28.98 285.183-44.698-4.864-4.352-24.473-16.896-95.13-28.57a15.365 15.365 0 0 1 5.018-30.31c108.084 17.817 121.959 40.704 121.959 58.675 0 24.218-30.464 41.011-98.765 54.528-55.86 11.06-133.018 18.483-217.344 21.043-.154.051-.307.051-.46.051zm286.157-73.83h.051-.051z"
          fill="#333"/>
    <path d="m629.35 420.66-41.164-38.913c-7.578-7.168-18.944-11.315-30.976-11.315h-69.735c-12.493 0-13.977-.666-21.504 6.963-10.086 10.189-24.934 30.31-37.888 43.264H629.35z"
          fill="#FFA750"/>
    <path d="M979.66 658.74c-1.433-37.12-23.756-70.913-41.574-89.191C820.224 450.56 671.898 458.803 671.898 458.803h-72.192c-.82 43.264 8.243 144.282 106.29 181.248 46.08 16.999 90.266 18.688 129.895 18.688h143.77z"
          fill="#84DDFD"/>
    <path d="M988.16 844.698a15.36 15.36 0 0 0-21.248 4.505c-39.68 61.184-88.883 53.76-90.829 53.453a16.938 16.938 0 0 0-2.816-.256h-70.656v-89.702h7.885c51.917 0 88.474-10.24 122.214-34.202.154-.102.308-.205.41-.307 37.018-28.365 57.651-62.771 61.338-102.298.563-5.888.665-11.776.46-17.561v-.359a170.708 170.708 0 0 0-.46-7.219l-.154-1.74a126.053 126.053 0 0 0-.973-7.527l-.153-.973c-5.274-33.74-21.402-64.82-39.066-87.654-.41-.512-.768-1.024-1.178-1.485a115.308 115.308 0 0 0-3.123-3.891 268.484 268.484 0 0 0-4.557-5.325 428.544 428.544 0 0 0-12.339-12.954 426.286 426.286 0 0 0-19.353-18.278c-1.895-1.69-3.79-3.482-5.735-5.12-2.662-2.304-5.325-4.455-7.987-6.605-1.587-1.28-3.123-2.662-4.71-3.891a409.696 409.696 0 0 0-11.213-8.602 16.656 16.656 0 0 1-1.485-1.177c-114.637-84.634-231.117-80.692-241.357-80.18h-4.505L593.46 352c-11.726-14.54-29.185-22.835-47.822-22.835h-16.537V178.739c0-8.499-6.861-15.36-15.36-15.36s-15.36 6.861-15.36 15.36v150.323h-21.658c-19.149 0-37.53 9.114-49.05 24.423-10.495 13.926-25.497 33.69-39.27 51.814H227.891c-8.806 0-16.947-4.403-21.811-11.725l-53.862-81.868a61.322 61.322 0 0 0-23.399-20.89l-64.102-32.512a26.982 26.982 0 0 0-29.44 3.072 27.039 27.039 0 0 0-9.319 28.109l57.908 223.949c4.761 18.432 18.278 33.382 36.147 39.987 30.617 11.315 132.25 48.845 154.317 57.446 18.022 7.015 23.756 23.45 31.078 49.715l.666 2.356c.204.716.46 1.433.768 2.099C369.818 807.014 544.512 812.8 572.314 812.8c1.843 0 3.02 0 3.532-.051h10.957v89.702H465.562c-8.5 0-15.36 6.861-15.36 15.36s6.86 15.36 15.36 15.36H872.14c1.997.256 5.58.615 10.445.615 22.323 0 71.065-7.68 110.08-67.84 4.659-7.117 2.61-16.64-4.506-21.248zM641.638 436.019c.308 0 .615 0 .922-.051.154 0 1.638-.102 4.352-.102 7.22-.052 22.938.307 44.237 3.379 56.013 8.14 150.733 35.174 231.475 123.494 1.792 1.997 3.635 4.25 5.478 6.503.512.614 1.024 1.228 1.485 1.894a211.365 211.365 0 0 1 5.223 7.066c.46.614.87 1.28 1.28 1.945a163.55 163.55 0 0 1 3.788 5.837c.717 1.126 1.383 2.253 2.1 3.38a157.389 157.389 0 0 1 6.144 11.263c.87 1.741 1.74 3.482 2.56 5.274.665 1.382 1.28 2.765 1.894 4.198a207.342 207.342 0 0 1 3.38 8.448l1.228 3.533c.82 2.355 1.536 4.762 2.253 7.168.307 1.024.614 2.048.87 3.072.87 3.38 1.639 6.81 2.253 10.24.051.256.102.512.154.82H821.81c-40.653 0-88.166-1.64-136.857-21.095-89.805-36.71-105.524-133.376-107.11-186.266h63.794zm-189.44-64a31.017 31.017 0 0 1 24.576-12.237h68.967c9.37 0 18.073 4.148 23.961 11.47l27.546 34.047h-170.24c9.267-12.237 18.227-24.013 25.19-33.28zm123.239 410.01c-1.843.153-180.736 3.225-240.077-128.461l-.358-1.229c-7.066-25.395-15.924-56.985-49.562-70.093-22.323-8.652-124.16-46.284-154.829-57.6a27.49 27.49 0 0 1-17.05-18.841l-55.91-216.576 57.344 29.03a31.002 31.002 0 0 1 11.623 10.343l53.913 81.817c10.547 16.026 28.263 25.549 47.463 25.549h319.13c1.638 59.7 19.609 171.11 126.31 214.733 53.862 21.555 104.806 23.347 148.377 23.347h142.131c-3.123 30.157-19.61 56.883-49.1 79.514-28.416 20.172-58.676 28.364-104.192 28.364l-235.213.103zm42.086 30.669h154.42V902.4h-154.42v-89.702z"
          fill="#333"/>
    <path d="M227.38 178.125a294.349 29.747 0 1 0 588.697 0 294.349 29.747 0 1 0-588.698 0Z" fill="#FFA750"/>
</svg>
