<svg class="icon" viewBox="0 0 1024 1024" xmlns="http://www.w3.org/2000/svg" width="200" height="200">
    <path d="m685.978 928.256-91.546-231.731a171.725 171.725 0 0 1-64.205 12.441c-23.654 0-68.25-4.761-88.78-13.414L347.75 916.378c50.228 21.145 124.519 41.676 182.477 41.676a421.996 421.996 0 0 0 155.75-29.798zM370.79 146.636l75.11 196.609c20.122-8.243 60.263-10.291 83.303-10.291 21.504 0 29.03 7.168 47.975 14.387l91.801-208.538c-48.64-19.61-83.149-23.45-138.803-23.45-56.422.052-110.234 11.162-159.386 31.284zM929.382 680.5c17.46-46.233 19.815-97.587 19.815-149.913 0-57.805-21.453-124.928-42.496-175.053l-211.968 90.675c8.09 19.968 12.595 62.771 12.595 85.658 0 19.712-3.38 38.604-9.472 56.268L929.382 680.5zM330.854 521.165c0-23.347 4.66-57.344 13.056-77.67l-198.144-74.292c-19.865 48.896-36.864 111.411-36.864 167.475 0 58.88 9.575 94.362 26.88 143.412l208.128-87.143c-9.574-21.453-13.056-46.797-13.056-71.782z"
          fill="#84DDFD"/>
    <path d="m343.962 592.896-208.18 87.194c42.906 100.198 111.463 193.894 211.968 236.236l93.696-228.761c-40.294-16.999-79.667-54.835-97.484-94.669zm0-149.35c17.561-42.343 59.494-82.944 101.939-100.301l-75.11-196.608c-104.807 42.905-182.375 117.709-224.973 222.617l198.144 74.292zm338.278-1.23 219.955-94.412C858.778 244.48 774.861 179.917 670.67 137.933l-88.781 208.179c44.8 16.998 82.38 51.917 100.352 96.205zm15.565 145.716c-16.282 47.155-56.115 88.934-102.195 107.469l88.268 227.481C793.6 879.31 887.552 791.194 929.331 680.5l-231.526-92.467z"
          fill="#FFA750"/>
    <path d="M935.936 333.517c-.102-.307-.307-.512-.46-.82-47.514-112.486-139.52-203.11-252.673-248.729-54.835-22.118-112.845-33.331-172.39-33.331-60.365 0-119.091 11.52-174.592 34.201-114.227 46.746-206.336 139.11-252.877 253.44-.051.103-.102.154-.102.256C60.416 393.728 49.05 452.044 49.05 512c0 62.976 12.492 124.058 37.12 181.555l.307.615c46.797 108.697 136.038 197.324 245.043 243.2 56.678 23.859 116.89 35.993 178.893 35.993 58.88 0 116.275-10.957 170.598-32.614 120.013-47.821 215.04-144.487 260.864-265.37.103-.205.205-.358.307-.563 19.661-52.07 29.594-106.854 29.594-162.816 0-61.85-12.083-121.907-35.84-178.483zM569.549 355.89c43.264 16.384 78.08 50.33 95.539 93.184a.462.462 0 0 1 .051.256c8.09 19.968 12.237 41.063 12.237 62.669 0 18.432-3.072 36.608-9.011 54.067-.051.154-.154.256-.205.41a166.881 166.881 0 0 1-95.488 100.403 166.052 166.052 0 0 1-62.208 12.032c-22.426 0-44.237-4.352-64.717-13.005-39.117-16.486-70.246-47.001-87.654-85.965-.103-.153-.205-.307-.307-.512A165.473 165.473 0 0 1 343.5 511.95c0-21.863 4.198-43.162 12.441-63.335.103-.153.154-.307.256-.512 16.948-40.908 50.176-73.984 91.085-90.726 20.122-8.243 41.37-12.39 63.181-12.39 20.275.05 40.14 3.737 59.085 10.905zm331.878-24.371-214.22 91.955a198.625 198.625 0 0 0-92.11-90.112l90.215-214.989c94.822 42.292 172.39 118.836 216.115 213.146zM510.413 81.357c50.33 0 99.533 8.601 146.38 25.549l-90.419 215.5c-37.734-11.161-78.848-10.65-116.275 1.332l-88.32-216.013a429.235 429.235 0 0 1 148.634-26.368zm-177.101 38.041 22.323 54.63 65.997 161.383a199.49 199.49 0 0 0-87.45 87.245l-216.78-86.733c42.905-95.59 120.473-173.363 215.91-216.525zM79.77 512c0-50.79 8.755-100.403 26.01-147.66l106.444 42.598 110.131 44.083A196.26 196.26 0 0 0 312.73 512c0 22.682 3.788 44.749 11.315 65.894l-29.696 12.34-185.651 77.107C89.498 617.88 79.77 565.709 79.77 512zm249.65 390.86c-90.828-42.24-165.682-116.582-208.588-207.206l215.757-89.65a196.977 196.977 0 0 0 83.251 81.766l-76.39 181.708-14.03 33.383zm180.993 39.783c-52.685 0-103.987-9.37-152.679-27.853l90.47-215.09c20.02 6.655 40.858 9.983 62.26 9.983 20.224 0 40.038-3.02 59.136-9.062l54.63 138.24 31.13 78.797c-46.438 16.588-95.13 24.985-144.947 24.985zm173.414-36.403-85.76-217.088a197.683 197.683 0 0 0 93.235-97.638l47.668 19.046 168.857 67.43c-42.598 101.786-123.085 183.808-224 228.25zm234.855-257.024-113.408-45.312-103.732-41.42a197.771 197.771 0 0 0 6.554-50.535c0-20.531-3.123-40.653-9.318-60.058l214.63-92.16c18.38 48.538 27.648 99.687 27.648 152.218 0 47.053-7.526 93.133-22.374 137.267z"
          fill="#333"/>
</svg>
